<svg xmlns="http://www.w3.org/2000/svg"  viewBox="0 0 48 48" width="48px" height="48px" baseProfile="basic"><path fill="#8fcae6" d="M43.5,20h-2.995c-0.42-1.732-1.104-3.357-2.01-4.838l2.123-2.122c0.975-0.975,0.975-2.562,0-3.536	l-2.121-2.121c-0.976-0.976-2.562-0.974-3.536,0l-2.122,2.123c-1.481-0.906-3.106-1.59-4.838-2.01V4.5C28,3.121,26.879,2,25.5,2h-3	C21.121,2,20,3.121,20,4.5v2.995c-1.732,0.42-3.357,1.104-4.838,2.01L13.04,7.383c-0.976-0.976-2.562-0.974-3.536,0L7.383,9.504	c-0.975,0.975-0.975,2.562,0,3.536l2.123,2.122c-0.906,1.481-1.59,3.106-2.01,4.838H4.5C3.121,20,2,21.121,2,22.5v3	C2,26.879,3.121,28,4.5,28h2.995c0.42,1.732,1.104,3.357,2.01,4.838L7.383,34.96c-0.975,0.975-0.975,2.562,0,3.536l2.121,2.121	c0.487,0.487,1.128,0.731,1.768,0.731c0.641,0,1.281-0.244,1.769-0.731l2.122-2.123c1.481,0.906,3.106,1.59,4.838,2.01V43.5	c0,1.379,1.121,2.5,2.5,2.5h3c1.379,0,2.5-1.121,2.5-2.5v-2.995c1.732-0.42,3.357-1.104,4.838-2.011l2.829,2.83	c0.487,0.487,1.128,0.731,1.768,0.731c0.641,0,1.281-0.244,1.769-0.731l2.121-2.121c0.975-0.975,0.975-2.562,0-3.536l-2.83-2.829	c0.906-1.481,1.591-3.106,2.01-4.838H43.5c1.379,0,2.5-1.121,2.5-2.5v-3C46,21.121,44.879,20,43.5,20z"/><path fill="#324561" d="M11.372,29.426c0-0.146,0.034-0.336,0.121-0.569l3.791-10.277c0.251-0.691,0.674-1.011,1.356-1.011	c0.673,0,1.088,0.311,1.347,1.002l3.8,10.286c0.087,0.241,0.121,0.405,0.121,0.569c0,0.51-0.405,0.881-0.967,0.881	c-0.519,0-0.804-0.241-0.977-0.794l-0.949-2.687h-4.768l-0.941,2.678c-0.182,0.562-0.467,0.803-0.968,0.803	C11.761,30.307,11.372,29.953,11.372,29.426z M18.523,25.246l-1.875-5.467h-0.052l-1.856,5.467H18.523z"/><path fill="#324561" d="M23.566,29.306V18.708c0-0.621,0.363-1.002,0.968-1.002h3.705c2.418,0,4.102,1.667,4.102,4.094	c0,2.436-1.718,4.111-4.162,4.111h-2.678v3.395c0,0.621-0.371,1.001-0.967,1.001C23.93,30.307,23.566,29.927,23.566,29.306z M27.721,24.287c1.685,0,2.643-0.906,2.643-2.479c0-1.571-0.958-2.47-2.634-2.47h-2.229v4.948H27.721z"/><path fill="#324561" d="M34.041,29.306V18.57c0-0.622,0.363-1.002,0.968-1.002c0.596,0,0.967,0.38,0.967,1.002v10.735	c0,0.621-0.371,1.001-0.967,1.001C34.404,30.307,34.041,29.927,34.041,29.306z"/></svg>