<svg xmlns="http://www.w3.org/2000/svg"  viewBox="0 0 64 64" width="64px" height="64px"><polygon fill="#1e81ce" points="35 3 33 7 32 7 31 7 29 3 35 3"/><polygon fill="#1e81ce" points="7 60 7 61 3 61 3 33 5 33 7 33 7 34 7 60"/><polygon fill="#1e81ce" points="59 33 61 33 61 61 57 61 57 60 57 34 57 33 59 33"/><polygon fill="#5aaae7" points="48 34 7 34 7 60 48 60 57 60 57 34 48 34"/><path d="M61,32H59.3L34.06,15.17A2.966,2.966,0,0,0,35,13V12a3.014,3.014,0,0,0-2-2.83V8a.977.977,0,0,0,.89-.55l2-4A1,1,0,0,0,35,2H29a1,1,0,0,0-.89,1.45l2,4A.977.977,0,0,0,31,8v2a1,1,0,0,0,1,1,1,1,0,0,1,1,1v1a1,1,0,0,1-2,0V12H29v1a2.966,2.966,0,0,0,.94,2.17L4.7,32H3a1,1,0,0,0-1,1V61a1,1,0,0,0,1,1H7a1,1,0,0,0,1-1H56a1,1,0,0,0,1,1h4a1,1,0,0,0,1-1V33A1,1,0,0,0,61,32ZM6,60H4V34H6ZM32.38,6h-.76l-1-2h2.76ZM56,59H8V35H56Zm0-26H8a1.052,1.052,0,0,0-.24-.64L32,16.2,56.24,32.36A1.052,1.052,0,0,0,56,33Zm4,27H58V34h2Z"/><rect width="2" height="20" x="15" y="37"/><rect width="2" height="20" x="19" y="37"/><rect width="2" height="20" x="23" y="37"/><rect width="2" height="20" x="27" y="37"/><rect width="2" height="20" x="47" y="37"/><rect width="2" height="20" x="43" y="37"/><rect width="2" height="20" x="39" y="37"/><rect width="2" height="20" x="35" y="37"/><rect width="2" height="20" x="31" y="37"/><rect width="2" height="2" x="11" y="37"/><rect width="2" height="2" x="11" y="55"/><rect width="2" height="2" x="51" y="37"/><rect width="2" height="2" x="51" y="55"/><rect width="2" height="12" x="51" y="41"/><rect width="2" height="12" x="11" y="41"/></svg>