<?xml version="1.0" encoding="UTF-8" standalone="no" ?>
<!DOCTYPE svg PUBLIC "-//W3C//DTD SVG 1.1//EN" "http://www.w3.org/Graphics/SVG/1.1/DTD/svg11.dtd">
<svg xmlns="http://www.w3.org/2000/svg" xmlns:xlink="http://www.w3.org/1999/xlink" version="1.1" width="24" height="24" viewBox="0 0 24 24" xml:space="preserve">
<desc>Created with Fabric.js 3.6.6</desc>
<defs>
</defs>
<g transform="matrix(1 0 0 1 12.17 12.17)"  >
<path style="stroke: none; stroke-width: 1; stroke-dasharray: none; stroke-linecap: butt; stroke-dashoffset: 0; stroke-linejoin: miter; stroke-miterlimit: 4; fill: rgb(255,255,255); fill-rule: nonzero; opacity: 1;"  transform=" translate(-12, -12)" d="M 12 2 C 6.5 2 2 6.4787812 2 12.050781 C 2 17.622781 6.5 22 12 22 C 17.5 22 22 17.522781 22 12.050781 C 22 6.5787813 17.6 2 12 2 z M 11.199219 4.0898438 C 12.299219 4.6868438 13.299609 5.4835156 14.099609 6.4785156 C 14.499609 6.2795156 15 6.0800781 15.5 6.0800781 C 16.9 6.0800781 18 7.1753594 18 8.5683594 C 18 9.7623594 17.100391 10.857641 15.900391 11.056641 C 15.900391 11.355641 16 11.752781 16 12.050781 C 16 15.531781 13.999219 18.516766 11.199219 20.009766 C 7.1992188 19.611766 4 16.229781 4 12.050781 C 4 7.8717812 7.0992188 4.5868438 11.199219 4.0898438 z M 7.5 7 A 1.5 1.5 0 0 0 6 8.5 A 1.5 1.5 0 0 0 7.5 10 A 1.5 1.5 0 0 0 9 8.5 A 1.5 1.5 0 0 0 7.5 7 z M 9.5 12 A 2.5 2.5 0 0 0 7 14.5 A 2.5 2.5 0 0 0 9.5 17 A 2.5 2.5 0 0 0 12 14.5 A 2.5 2.5 0 0 0 9.5 12 z M 18 15.035156 C 18.6 15.035156 19 15.432297 19 16.029297 C 19 16.626297 18.6 17.025391 18 17.025391 C 17.4 17.025391 17 16.626297 17 16.029297 C 17 15.432297 17.4 15.035156 18 15.035156 z" stroke-linecap="round" />
</g>
</svg>