<?xml version="1.0" encoding="UTF-8" standalone="no" ?>
<!DOCTYPE svg PUBLIC "-//W3C//DTD SVG 1.1//EN" "http://www.w3.org/Graphics/SVG/1.1/DTD/svg11.dtd">
<svg xmlns="http://www.w3.org/2000/svg" xmlns:xlink="http://www.w3.org/1999/xlink" version="1.1" width="24" height="24" viewBox="0 0 24 24" xml:space="preserve">
<desc>Created with Fabric.js 3.6.6</desc>
<defs>
</defs>
<g transform="matrix(1 0 0 1 12.08 12.58)"  >
<path style="stroke: none; stroke-width: 1; stroke-dasharray: none; stroke-linecap: butt; stroke-dashoffset: 0; stroke-linejoin: miter; stroke-miterlimit: 4; fill: rgb(255,255,255); fill-rule: nonzero; opacity: 1;"  transform=" translate(-12, -12)" d="M 11 0 L 11 3 L 13 3 L 13 0 L 11 0 z M 4.2226562 2.8085938 L 2.8085938 4.2226562 L 4.9296875 6.34375 L 6.34375 4.9296875 L 4.2226562 2.8085938 z M 19.777344 2.8085938 L 17.65625 4.9296875 L 19.070312 6.34375 L 21.191406 4.2226562 L 19.777344 2.8085938 z M 12 5 C 8.1458495 5 5 8.1458524 5 12 C 5 15.854148 8.1458495 19 12 19 C 15.854151 19 19 15.854148 19 12 C 19 8.1458524 15.854151 5 12 5 z M 12 7 C 14.773271 7 17 9.2267307 17 12 C 17 14.773269 14.773271 17 12 17 C 9.226729 17 7 14.773269 7 12 C 7 9.2267307 9.226729 7 12 7 z M 10 10 A 1 1 0 0 0 10 12 A 1 1 0 0 0 10 10 z M 14 10 A 1 1 0 0 0 14 12 A 1 1 0 0 0 14 10 z M 0 11 L 0 13 L 3 13 L 3 11 L 0 11 z M 21 11 L 21 13 L 24 13 L 24 11 L 21 11 z M 10 13 C 10 14.105 10.895 15 12 15 C 13.105 15 14 14.105 14 13 L 10 13 z M 4.9296875 17.65625 L 2.8085938 19.777344 L 4.2226562 21.191406 L 6.34375 19.070312 L 4.9296875 17.65625 z M 19.070312 17.65625 L 17.65625 19.070312 L 19.777344 21.191406 L 21.191406 19.777344 L 19.070312 17.65625 z M 11 21 L 11 24 L 13 24 L 13 21 L 11 21 z" stroke-linecap="round" />
</g>
</svg>